<svg id="_レイヤー_1" xmlns="http://www.w3.org/2000/svg" version="1.1" viewBox="0 0 80 80">
  <path fill="#71e8ff" d="M44.13,7.56c1.1,1.92.88,4.51-.52,6.22-.32.39-.73.79-.76,1.3-.03.42.2.8.38,1.18.69,1.41.89,3.02.8,4.59-.08,1.57-.43,3.11-.78,4.64-.11.49-.2,1.03-.57,1.37-1.18,1.11-2.35.71-2.35.71-.23-.05-.47-.1-.7-.15-.48-.1-.96-.2-1.44-.31-.41-.09-.83-.17-1.23-.29-.74-.23-1.37-.67-1.63-1.43-.24-.72-.16-1.5-.1-2.25.08-.98.16-1.95.35-2.92.17-.88.41-1.75.8-2.56.37-.78.87-1.45,1.48-2.06.28-.28.58-.58.71-.96.14-.41,0-.81-.15-1.2-.3-.79-.42-1.64-.33-2.49.09-.82.37-1.61.82-2.3.44-.67,1.02-1.23,1.71-1.64"/>
  <path fill="#d8fffb" d="M42.47,27.39c.01-.24-.15-.42-.38-.48-.96-.27-1.91-.54-2.87-.81-.21-.06-.41-.11-.62-.18-.03,0-.06-.02-.09-.03,0,0-.02,0-.03,0s-.03,0-.03,0c-.02,0-.04-.02-.07-.02-.1-.04-.2-.08-.3-.12-.09-.04-.18-.08-.27-.13-.04-.02-.08-.04-.12-.07-.02-.01-.04-.02-.06-.04,0,0-.05-.04-.05-.04-.07-.05-.13-.1-.19-.15-.04-.04-.08-.07-.11-.11h-.01s-.03-.05-.04-.07c-.06-.08-.12-.16-.17-.25,0-.02-.04-.07-.05-.09,0-.01-.01-.03-.02-.03-.01-.03-.03-.06-.04-.09-.08-.19-.14-.4-.19-.6,0-.02-.01-.05-.02-.07,0,.01.01.06,0,0-.01-.06-.02-.11-.03-.17-.02-.1-.04-.21-.05-.31-.03-.21-.05-.43-.06-.64,0-.21,0-.41,0-.62,0,0,0-.03,0-.04,0-.01,0-.03,0-.04,0-.05,0-.1.01-.14,0-.11.02-.22.03-.33.05-.42.14-.84.25-1.24.03-.1.06-.2.09-.3,0-.02.03-.08.03-.1,0-.01.01-.03.01-.03.01-.03.02-.06.03-.09.07-.21.15-.41.24-.61.17-.4.36-.78.58-1.15.11-.18.22-.36.33-.54.01-.02.03-.04.04-.07,0,0,0,0,.01-.02.03-.04.05-.08.08-.12.06-.09.13-.19.2-.28.26-.35.54-.68.81-1.02.58-.74,1.03-1.57.9-2.54-.06-.43-.2-.85-.31-1.27-.09-.35-.15-.79-.11-1.15.02-.22.07-.45.12-.67.06-.24.09-.36.21-.59.01-.02.02-.05.04-.07,0,0,.01-.02.02-.04,0,0,.01-.02.01-.02.01-.02.02-.03.04-.05.06-.08.12-.14.19-.21.02-.02.04-.03.06-.05.03-.03.07-.05.1-.07.03-.02.07-.05.1-.07.02-.01.12-.06.1-.06.16-.07.32-.13.49-.18.01,0,.02,0,.03,0,0,0,.01,0,.02,0,.05,0,.1-.02.15-.02.1-.01.2-.02.3-.03.44-.02.88.06,1.35.17.23.05,1.04.16,1.26.22.24.06-.07-.18-.03-.42.02-.17-.03-.31-.14-.42,0-.02.02-.05.02-.07.07-.31-.13-.59-.41-.72-.24-.11-.53-.14-.79-.19-.53-.11-1.06-.24-1.59-.33-.32-.05-.61-.02-.9.14-.09.05-.17.11-.26.17-.03.02-.06.04-.1.06-.01,0-.03.01-.03.02-.04.01-.07.03-.11.04-.26.09-.5.19-.71.38-.18.16-.31.37-.44.58-.5.85-.74,1.86-.7,2.84.02.5.13.98.27,1.46.07.24.11.39.11.65,0,.1,0,.05,0,.02,0,.02,0,.05,0,.07,0,.06-.02.12-.03.17-.01.06-.02.11-.04.17,0,.03-.02.06-.03.1,0,0,0,.01,0,.02,0,0,0,0,0,0-.17.48-.45.93-.72,1.36-.27.43-.53.86-.78,1.3-.5.91-.92,1.85-1.25,2.84-.31.95-.52,1.93-.57,2.93-.05.98-.02,2.02.44,2.91.47.91,1.44,1.34,2.36,1.65,1.03.34,2.08.56,3.16.62.29.02.57.03.86.02.23,0,.41-.23.42-.44h0Z"/>
  <path fill="none" stroke="var(--hm-stroke, #000000)" stroke-width="1.47" stroke-miterlimit="10" d="M44.13,7.56c1.1,1.92.88,4.51-.52,6.22-.32.39-.73.79-.76,1.3-.03.42.2.8.38,1.18.69,1.41.89,3.02.8,4.59-.08,1.57-.43,3.11-.78,4.64-.11.49-.2,1.03-.57,1.37-1.18,1.11-2.35.71-2.35.71-.23-.05-.47-.1-.7-.15-.48-.1-.96-.2-1.44-.31-.41-.09-.83-.17-1.23-.29-.74-.23-1.37-.67-1.63-1.43-.24-.72-.16-1.5-.1-2.25.08-.98.16-1.95.35-2.92.17-.88.41-1.75.8-2.56.37-.78.87-1.45,1.48-2.06.28-.28.58-.58.71-.96.14-.41,0-.81-.15-1.2-.3-.79-.42-1.64-.33-2.49.09-.82.37-1.61.82-2.3.44-.67,1.02-1.23,1.71-1.64"/>
  <path fill="#71aeff" d="M41.94,3.7c.67.04,1.34.19,1.96.43.29.11.59.26.76.52.23.35.17.81.1,1.22-.06.33-.11.66-.26.95-.14.3-.39.56-.7.66-.28.08-.59.02-.88-.04-.53-.11-1.05-.22-1.58-.33-.25-.05-.52-.11-.69-.3-.28-.28-.25-.73-.2-1.12.05-.41.11-.84.3-1.2s.49-.77.91-.76l.28-.03h0Z"/>
  <path fill="none" stroke="var(--hm-stroke, #000000)" stroke-width="1.47" stroke-miterlimit="10" d="M41.94,3.7c.67.04,1.34.19,1.96.43.29.11.59.26.76.52.23.35.17.81.1,1.22-.06.33-.11.66-.26.95-.14.3-.39.56-.7.66-.28.08-.59.02-.88-.04-.53-.11-1.05-.22-1.58-.33-.25-.05-.52-.11-.69-.3-.28-.28-.25-.73-.2-1.12.05-.41.11-.84.3-1.2s.49-.77.91-.76l.28-.03h0Z"/>
  <path fill="#FFFFFF" d="M41.06,9.52c-.08-.38-.48-.48-.8-.33-.21.1-.4.24-.54.43-.29.39-.39.85-.44,1.32-.04.16,0,.33.12.46.03.03.07.06.11.09.22.13.5.1.72-.05.24-.17.27-.45.33-.71,0-.03.02-.07.03-.1.02-.06.02-.06,0-.02.02-.05.04-.09.06-.14.02-.05.04-.09.07-.13,0,0,.06-.11.05-.08.16-.24.37-.41.3-.73h0Z"/>
  <path fill="#FFFFFF" d="M42.02,8.87c-.04-.1-.09-.21-.16-.29-.03-.05-.08-.09-.13-.12-.05-.04-.11-.06-.17-.07-.04,0-.08,0-.13,0-.08,0-.16.03-.22.08-.16.1-.25.31-.24.49,0,.1.04.18.09.26.05.08.12.14.21.18.02,0,.03.02.05.02.02.01.04.02.06.03.06.03.12.04.18.04.06,0,.12,0,.18-.02.11-.04.21-.12.26-.23.05-.11.06-.24.02-.36h0Z"/>
</svg>
