<svg id="_レイヤー_1" xmlns="http://www.w3.org/2000/svg" version="1.1" viewBox="0 0 80 80">
  <path fill="#fee21c" d="M41.26,13.86c-2.14-.29-4.18.33-5.82,1.78-1.62,1.43-2.7,3.23-2.68,5.4s.85,4.39,2.68,5.54c1.54.96,4.04,1.91,7.25.58,1.37-.57,2.6-1.69,3.31-2.99.71-1.31.88-2.67.71-4.33-.13-1.3-.98-2.88-1.98-4.12l-.67-.68.91-.56c.19-.12.2-.4,0-.52-.78-.52-1.65-.89-2.56-1.1-.2-.05-.37.13-.32.33l.23.95-1.05-.26h0Z"/>
  <path fill="none" stroke="var(--hm-stroke, #000000)" stroke-width="1.47" stroke-linecap="round" stroke-linejoin="round" d="M43.86,13.24c1.12-1.3,2.89-1.82,4.6-1.84,2.27-.03,7.77.5,8.27,5.36.07.68.26,1.47-.24,1.94-.25.23-.58.32-.89.46s-.93.3-1.17.89c-.45,1.12.65,1.52,1.3,1.25,1-.41.91-1.16,1.03-1.6s.08-.91.04-1.37"/>
  <path fill="none" stroke="#7accf2" stroke-width="1.47" stroke-miterlimit="10" d="M34.91,16.19c-.21,2.72,1.1,5.51,3.33,7.08,2.23,1.57,5.3,1.87,7.79.75"/>
  <path fill="#FFFFFF" d="M46.46,19.26c-.75.1-1.5.11-2.25.04-.1,0-.2-.02-.3-.03-.03,0-.13-.02,0,0-.04,0-.08-.01-.12-.02-.2-.03-.39-.06-.58-.1-.37-.08-.73-.17-1.09-.29-.17-.05-.34-.11-.51-.17-.09-.03-.19-.07-.28-.11-.04-.01-.07-.03-.11-.05.13.05-.05-.02-.06-.03-.35-.15-.68-.32-1.01-.51s-.65-.39-.95-.61c-.07-.05-.14-.1-.22-.16-.02-.02-.13-.1-.03-.02-.03-.02-.06-.05-.09-.07-.15-.12-.31-.25-.45-.38-.31-.28-.6-.57-.88-.88-.07-.08-.14-.16-.21-.25-.03-.04-.06-.08-.09-.12-.02-.02-.12-.16-.04-.05-.13-.17-.26-.35-.38-.53-.19-.29-.59-.44-.9-.24-.29.18-.44.6-.24.9,1.84,2.76,4.87,4.56,8.14,4.99.89.12,1.78.12,2.67.01.34-.04.68-.27.66-.66-.01-.32-.29-.71-.66-.66h0Z"/>
  <path fill="none" stroke="#bed713" stroke-width="1.47" stroke-miterlimit="10" d="M37.5,14.45c1.74,3.94,4.7,6.6,8.96,7.23"/>
  <path fill="none" stroke="#e75d02" stroke-width="1.47" stroke-linecap="round" stroke-linejoin="round" d="M43.86,26.32c-3.55.85-7.82-.56-10.99-4.02"/>
  <path fill="none" stroke="var(--hm-stroke, #000000)" stroke-width="1.47" stroke-linecap="round" stroke-linejoin="round" d="M41.26,13.86c-2.14-.29-4.18.33-5.82,1.78-1.62,1.43-2.7,3.23-2.68,5.4s.85,4.39,2.68,5.54c1.54.96,4.04,1.91,7.25.58,1.37-.57,2.6-1.69,3.31-2.99.71-1.31.88-2.67.71-4.33-.13-1.3-.98-2.88-1.98-4.12l-.67-.68.91-.56c.19-.12.2-.4,0-.52-.78-.52-1.65-.89-2.56-1.1-.2-.05-.37.13-.32.33l.23.95-1.05-.26h0Z"/>
  <circle fill="#2689ff" cx="37.74" cy="18.04" r=".97"/>
  <circle fill="#2689ff" cx="40.46" cy="25.89" r=".67"/>
  <circle fill="#fffbd1" cx="34.49" cy="22.47" r=".67"/>
  <circle fill="#fffbd1" cx="42.37" cy="24.84" r=".92"/>
</svg>
